<svg width="61" height="24" viewBox="0 0 61 24" fill="none" xmlns="http://www.w3.org/2000/svg">
<path d="M7.05621 23.8195C2.85094 23.8195 1.09685 20.0899 0.980359 16.496C0.881745 13.3624 0.887909 10.2232 0.980359 7.08958C1.01425 5.42846 1.63133 3.83216 2.7236 2.58007C3.81588 1.32797 5.31377 0.49984 6.95513 0.240604C7.88595 0.0846587 8.82865 0.0106309 9.7724 0.0193715C18.6842 0.00129488 27.595 -0.00178636 36.5048 0.0101278C40.3378 0.0101278 42.3785 1.34862 43.666 4.68806C44.7175 7.41804 43.8361 10.9122 41.5779 13.0487C41.1124 13.4994 40.5623 13.8536 39.9594 14.0909C39.3565 14.3283 38.7126 14.444 38.0647 14.4316C34.1818 14.4587 30.2989 14.524 26.4197 14.5782C24.6119 14.6053 23.9907 15.0922 24.0116 16.4572C24.0357 17.7716 24.7284 18.3182 26.4912 18.3182C35.0533 18.3273 43.6155 18.3273 52.1776 18.3182C54.4359 18.3182 55.0306 17.718 55.0547 15.4896C55.0785 13.0493 55.0785 10.6098 55.0547 8.17109C55.0275 6.02963 54.4303 5.4596 52.2491 5.43187C50.4087 5.40784 48.5653 5.39613 46.7249 5.43187C46.3586 5.49933 45.9803 5.42481 45.667 5.22347C45.3537 5.02213 45.1288 4.70907 45.038 4.34789C44.5758 2.62853 43.5379 1.11964 42.0974 0.072985C46.2651 0.072985 50.1431 -0.124214 53.9878 0.12968C57.6205 0.368784 60.3361 3.57081 60.3977 7.20297C60.4487 10.2378 60.4487 13.2736 60.3977 16.3105C60.3293 20.4085 57.9003 23.0849 53.8134 23.6586C53.3717 23.7339 52.9255 23.7799 52.4778 23.796C43.4176 23.8053 34.3575 23.8497 25.2973 23.7813C21.2566 23.7517 18.4738 20.5946 18.5355 16.4066C18.5971 12.0991 21.309 9.28527 25.4668 9.25261C29.0009 9.22549 32.5356 9.25877 36.0678 9.23782C37.7886 9.22611 38.3982 8.65855 38.3532 7.22146C38.3125 5.87372 37.7566 5.42325 36.0327 5.42325C27.0732 5.41708 18.1137 5.41708 9.15422 5.42325C7.06299 5.42325 6.34865 6.12207 6.33078 8.17109C6.30982 10.6595 6.30982 13.1477 6.33078 15.6357C6.35173 17.6428 6.89534 18.1956 8.92371 18.2406C11.2152 18.2942 13.5037 18.3361 15.7952 18.2942C16.2371 18.2355 16.6849 18.3429 17.052 18.5957C17.419 18.8485 17.6791 19.2286 17.7817 19.6623C18.3974 21.3222 19.4848 22.7661 20.9102 23.8164L7.05621 23.8195Z" fill="#2BACE2"/>
</svg>